<svg width="16" height="16" viewBox="0 0 16 16" fill="none" xmlns="http://www.w3.org/2000/svg">
<path d="M10.1823 13.2035C10.1823 13.2035 10.7734 13.2384 10.9799 14.0568C10.9799 14.0568 11.0407 14.6347 11.4496 14.6929C11.1581 14.7511 11.0366 14.8674 11.0164 14.976C10.7248 14.6696 10.6358 14.2934 10.5993 14.0762C10.5629 13.8318 10.2389 13.4517 10.2389 13.4517L10.1823 13.2035Z" fill="#E5880E"/>
<path d="M9.00391 12.6294C9.00391 12.6294 10.1863 12.4122 10.6762 13.1647C11.3322 14.1693 12.1055 14.0762 12.6076 13.8745C12.2797 14.1615 12.2513 14.4796 12.2513 14.4796C12.2513 14.4796 11.0771 14.4912 10.5952 13.6999C10.2834 13.3043 10.0243 13.2268 10.0243 13.2268L9.00391 12.6294Z" fill="#E8AE08"/>
<path d="M8.98364 12.5713L9.60316 10.3838" stroke="#404936" stroke-width="0.396196" stroke-miterlimit="10"/>
<path d="M10.1255 15.1041H7.09273C7.00365 15.1041 6.93481 15.0343 6.93481 14.9528V12.7498H10.2875V14.9489C10.2875 15.0343 10.2146 15.1041 10.1255 15.1041Z" fill="#61664A"/>
<path d="M5.89014 10.1432L7.88636 12.6837" stroke="#404936" stroke-width="0.396196" stroke-miterlimit="10"/>
<path d="M11.4901 10.1432L9.49792 12.6837" stroke="#404936" stroke-width="0.396196" stroke-miterlimit="10"/>
<path d="M8.40052 12.5713L7.78101 10.3838" stroke="#404936" stroke-width="0.396196" stroke-miterlimit="10"/>
<path d="M14.5391 5.3725C14.5391 8.04101 12.8303 10.2363 10.6438 10.4923C12.2027 9.65453 13.3 7.68029 13.3 5.3725C13.3 3.06858 12.2027 1.09047 10.6438 0.252686C12.8303 0.512555 14.5391 2.70399 14.5391 5.3725Z" fill="#404936"/>
<path d="M6.6919 10.4923C4.50537 10.2363 2.79663 8.04101 2.79663 5.3725C2.79663 2.70399 4.50537 0.508676 6.6919 0.252686C5.13298 1.09047 4.03567 3.06858 4.03567 5.3725C4.03567 7.68029 5.13298 9.65453 6.6919 10.4923Z" fill="#404936"/>
<path d="M8.52622 0.756961C8.52622 0.221708 7.96339 -0.139007 7.44105 0.0588045C7.29528 0.113106 7.14951 0.179043 7.00779 0.256615C5.44888 1.0944 4.35156 3.07251 4.35156 5.37643C4.35156 7.68035 5.44888 9.65846 7.00779 10.4962C7.14951 10.5699 7.29123 10.6359 7.44105 10.6941C7.95934 10.8919 8.52622 10.5312 8.52622 9.9959V0.756961Z" fill="#547147"/>
<path d="M7.33979 12.0322C7.11709 12.5985 8.51808 12.7808 8.51808 12.7808C8.51808 12.7808 8.46545 13.4867 8.62741 12.7071C8.78938 11.9275 8.30348 11.3457 8.13747 11.2758C7.97145 11.1983 7.56249 11.462 7.33979 12.0322ZM8.30753 11.8344C8.44925 11.9701 8.60312 12.4899 8.60312 12.4899L8.55453 12.6373C8.55453 12.6373 7.70016 12.389 7.81354 12.1757C7.92691 11.9624 8.16986 11.6986 8.30753 11.8344Z" fill="#E5880E"/>
<path d="M10.3523 0.252709C10.2106 0.179015 10.0688 0.113078 9.91903 0.0548983C9.40074 -0.142913 8.83386 0.217801 8.83386 0.753055V9.99199C8.83386 10.5272 9.39669 10.888 9.91903 10.6902C10.0648 10.6358 10.2106 10.5699 10.3523 10.4923C11.9112 9.65455 13.0085 7.68032 13.0085 5.37252C13.0085 3.06861 11.9112 1.09438 10.3523 0.252709Z" fill="#547147"/>
<path d="M8.77317 12.9126H8.44519V15.1118H8.77317V12.9126Z" fill="white"/>
<path d="M10.2902 14.0489V13.7347H6.90913V14.0489H10.2902Z" fill="white"/>
<path d="M9.07276 11.2448C8.44109 11.1905 8.6395 12.5325 8.6395 12.5325C8.6395 12.5325 7.91471 12.676 8.74478 12.6139C9.5708 12.5519 10.0243 11.9468 10.0526 11.7761C10.081 11.6055 9.70442 11.2991 9.07276 11.2448ZM9.53436 12.0903C9.43718 12.2571 8.95533 12.5402 8.95533 12.5402L8.79742 12.5364C8.79742 12.5364 8.81766 11.6792 9.06061 11.7296C9.30356 11.7761 9.63154 11.9235 9.53436 12.0903Z" fill="#E8AE08"/>
<path opacity="0.64" d="M6.93481 12.9243L10.2875 12.9204V13.1221L6.93481 13.0096V12.9243Z" fill="#61664A"/>
<path opacity="0.32" d="M8.61928 16C10.1422 16 11.3767 15.9375 11.3767 15.8603C11.3767 15.7832 10.1422 15.7207 8.61928 15.7207C7.09637 15.7207 5.86182 15.7832 5.86182 15.8603C5.86182 15.9375 7.09637 16 8.61928 16Z" fill="#506C44"/>
<path d="M10.3604 12.9243H6.85788C6.80929 12.9243 6.7688 12.8855 6.7688 12.839V12.5985C6.7688 12.552 6.80929 12.5132 6.85788 12.5132H10.3604C10.409 12.5132 10.4495 12.552 10.4495 12.5985V12.839C10.4495 12.8855 10.409 12.9243 10.3604 12.9243Z" fill="#3E432F"/>
<path d="M8.82986 12.5132H8.39661V12.9243H8.82986V12.5132Z" fill="white"/>
<path d="M13.2393 10.6437L13.2879 10.857C13.292 10.8725 13.3001 10.8841 13.3162 10.888L13.5268 10.9695C13.5632 10.985 13.5673 11.0276 13.5309 11.047L13.3324 11.1556C13.3203 11.1634 13.3122 11.175 13.3081 11.1905L13.292 11.4077C13.2879 11.4427 13.2434 11.4621 13.215 11.4388L13.045 11.2953C13.0328 11.2875 13.0166 11.2836 13.0045 11.2836L12.7818 11.3341C12.7453 11.3418 12.7129 11.3069 12.7291 11.272L12.8223 11.0703C12.8263 11.0587 12.8263 11.0432 12.8182 11.0315L12.6967 10.8453C12.6765 10.8143 12.7008 10.7755 12.7413 10.7794L12.968 10.8027C12.9842 10.8027 12.9964 10.7988 13.0085 10.7872L13.1543 10.6204C13.1867 10.5971 13.2312 10.6087 13.2393 10.6437Z" fill="#E8AE08"/>
<path d="M3.95874 11.0586L4.16524 11.1517C4.17739 11.1594 4.19359 11.1556 4.20978 11.1517L4.40819 11.0431C4.44058 11.0237 4.48107 11.0508 4.47703 11.0858L4.44868 11.303C4.44868 11.3185 4.45273 11.3301 4.46488 11.3417L4.63494 11.4891C4.66329 11.5124 4.65114 11.5589 4.6147 11.5667L4.39199 11.6055C4.3758 11.6094 4.36365 11.6171 4.3596 11.6326L4.26647 11.8305C4.25027 11.8654 4.20168 11.8654 4.18549 11.8343L4.07616 11.6443C4.06806 11.6326 4.05592 11.6249 4.03972 11.621L3.81297 11.5977C3.77653 11.5939 3.76033 11.5512 3.78462 11.524L3.94254 11.365C3.95469 11.3534 3.95874 11.3417 3.95469 11.3262L3.9061 11.1129C3.88585 11.0741 3.92229 11.0431 3.95874 11.0586Z" fill="#E8AE08"/>
<path d="M0.597924 5.4966L0.614121 5.71381C0.614121 5.72932 0.622219 5.74096 0.638415 5.74872L0.836823 5.8612C0.869216 5.88059 0.865167 5.92713 0.832774 5.93877L0.622219 6.02022C0.610072 6.0241 0.597925 6.03574 0.593875 6.05125L0.545285 6.26458C0.537187 6.29948 0.488597 6.31112 0.464303 6.28397L0.318534 6.11719C0.310436 6.10555 0.294239 6.10167 0.278043 6.10167L0.0512912 6.12107C0.014849 6.12495 -0.0134946 6.08616 0.00675107 6.05513L0.128225 5.86895C0.136323 5.85732 0.136323 5.8418 0.132274 5.83017L0.043193 5.62848C0.0269965 5.59357 0.0593897 5.55866 0.0958319 5.5703L0.318534 5.6246C0.334731 5.62848 0.346878 5.6246 0.359026 5.61296L0.529089 5.46945C0.549335 5.4423 0.593875 5.4617 0.597924 5.4966Z" fill="#E8AE08"/>
<path d="M15.4663 3.01816L15.6404 3.16167C15.6526 3.16943 15.6688 3.17331 15.6809 3.16943L15.9036 3.11513C15.9401 3.10737 15.9725 3.14228 15.9563 3.17331L15.8672 3.375C15.8631 3.38663 15.8631 3.40215 15.8712 3.41379L15.9927 3.59996C16.0129 3.63099 15.9887 3.66978 15.9482 3.6659L15.7214 3.6465C15.7052 3.6465 15.6931 3.65038 15.6809 3.66202L15.5351 3.8288C15.5109 3.85595 15.4623 3.84432 15.4542 3.80941L15.4015 3.59608C15.3975 3.58057 15.3894 3.56893 15.3732 3.56505L15.1626 3.4836C15.1262 3.47196 15.1221 3.42542 15.1545 3.40603L15.3489 3.29355C15.361 3.28579 15.3691 3.27415 15.3691 3.25864L15.3813 3.04144C15.3934 3.01041 15.438 2.99489 15.4663 3.01816Z" fill="#E8AE08"/>
<path opacity="0.33" d="M13.0288 5.37245C13.0288 5.13585 13.0166 4.90313 12.9923 4.67041C12.4011 7.89357 9.06061 8.99898 8.85815 9.06492V9.98804C8.85815 10.5233 9.42098 10.884 9.94332 10.6862C10.0891 10.6319 10.2349 10.566 10.3766 10.4884C11.9355 9.65447 13.0288 7.68024 13.0288 5.37245Z" fill="#547147"/>
<path opacity="0.33" d="M14.5188 5.87671C14.0248 7.31181 12.721 8.57237 12.2513 8.99126C11.818 9.639 11.2674 10.1549 10.6438 10.4923C12.6886 10.2518 14.3164 8.3125 14.5188 5.87671Z" fill="#404936"/>
<path opacity="0.33" d="M8.55043 7.07532C8.50994 7.57178 8.15767 8.43672 7.01176 8.69659C5.86991 8.95646 4.80498 7.61057 4.69971 7.47482C5.13296 8.83622 5.97923 9.93 7.03606 10.4963C7.17778 10.57 7.3195 10.6359 7.46931 10.6941C7.9876 10.8919 8.55448 10.5312 8.55448 9.99594V7.07532H8.55043Z" fill="#547147"/>
<path opacity="0.33" d="M4.42835 9.39863C5.06001 9.99982 5.83744 10.3916 6.68776 10.4924C5.52971 9.87182 4.62675 8.61902 4.23804 7.07532C4.44454 8.12255 4.44454 8.99137 4.42835 9.39863Z" fill="#404936"/>
<path opacity="0.39" d="M7.46533 0.0588045C7.31956 0.113106 7.17379 0.179042 7.03207 0.256615C5.80518 0.915985 4.86983 2.27739 4.52161 3.94521C4.83339 3.1656 5.90236 1.17585 8.54644 1.62578V0.756961C8.55049 0.221708 7.98361 -0.139007 7.46533 0.0588045Z" fill="#547147"/>
<path opacity="0.39" d="M6.69188 0.252686C4.57823 0.500919 2.90999 2.56048 2.80066 5.11263C3.36754 2.80484 4.98314 1.68003 5.26658 1.49773C5.67149 0.970235 6.15334 0.543584 6.69188 0.252686Z" fill="#404936"/>
<path opacity="0.39" d="M10.1053 1.53654C11.1459 1.29994 11.7938 1.7072 12.2108 2.12222C11.7492 1.30382 11.1135 0.65221 10.3766 0.252709C10.2349 0.179015 10.0931 0.113078 9.94332 0.0548983C9.42503 -0.142913 8.85815 0.217801 8.85815 0.753055V3.36339C9.00797 2.58378 9.34405 1.71108 10.1053 1.53654Z" fill="#547147"/>
<g opacity="0.39">
<path d="M13.1016 3.70449L13.1056 3.71221C13.1056 3.71221 13.1016 3.6929 13.0895 3.6543C13.0935 3.6736 13.0975 3.68904 13.1016 3.70449Z" fill="#404936"/>
<path d="M12.6724 1.14092C12.0853 0.656093 11.3929 0.341922 10.6438 0.256592C11.733 0.842268 12.5914 1.97871 13.0166 3.3983C12.8708 2.84753 12.6036 1.73436 12.6724 1.14092Z" fill="#404936"/>
</g>
</svg>
